<?xml version="1.0" encoding="utf-8"?>
<!-- Generator: Adobe Illustrator 23.0.3, SVG Export Plug-In . SVG Version: 6.00 Build 0)  -->
<svg version="1.1" id="Capa_1" xmlns="http://www.w3.org/2000/svg" xmlns:xlink="http://www.w3.org/1999/xlink" x="0px" y="0px"
	 viewBox="0 0 1200 1200" enable-background="new 0 0 1200 1200" xml:space="preserve">
<g>
	<path fill="#070308" d="M356.722,703.341c0,20.913-16.626,37.866-37.136,37.866c-20.51,0-37.136-16.953-37.136-37.866
		s16.626-37.866,37.136-37.866C340.096,665.475,356.722,682.428,356.722,703.341z M396.473,702.807
		c0,43.004-34.189,77.866-76.364,77.866s-76.364-34.862-76.364-77.866s34.189-77.866,76.364-77.866S396.473,659.804,396.473,702.807
		z M367.183,703.341c0-26.804-21.31-48.533-47.597-48.533s-47.597,21.729-47.597,48.533c0,26.804,21.31,48.533,47.597,48.533
		S367.183,730.145,367.183,703.341z M1150,667.507c0,16.08-13.036,29.116-29.116,29.116l-48.537-0.001
		c-0.352,0.012-0.704,0.018-1.055,0.018c-16.443,0-31.489-12.902-30.677-29.133c0-2.259,0.343-4.451,0.925-6.566
		c0,0.001-0.001,0.002-0.001,0.003c-13.136-28.755-41.721-48.691-74.884-48.691c-42.551,0-77.573,32.817-82.083,74.982H400.596
		c-7.389-38.779-40.86-68.06-81.052-68.06s-73.663,29.281-81.052,68.06H122.695c0,0-2.38-4.352-6.273-11.536H87.296
		c-5.442,0-9.854-4.412-9.854-9.853v-19.514c0-5.442,4.412-9.853,9.854-9.853h8.076c-14.167-26.669-30.358-57.771-39.425-77.289
		c-20.364-43.835,18.101-41.528,18.101-41.528l221.351,18.174c6.929-6.729,13.962-13.56,13.963-13.56
		c26.39-25.629,56.205-53.407,90.365-67.107c36.258-14.541,74.821-23.222,113.336-28.638c78.11-10.984,157.883-8.334,236.04,0.758
		c48.521,5.645,72.339,54.606,96.502,92.68c56.648-2.625,113.699,0.929,170.198,4.957c31.53,2.242,62.964,4.819,94.454,7.687
		c19.108,1.74,28.214,14.328,28.214,33.253v75.834C1146.729,645.898,1150,655.57,1150,667.507z M1095.759,575.751
		c0,3.379,2.74,6.119,6.119,6.119h21.215c3.38,0,6.119-2.74,6.119-6.119v-9.457c0-15.096-12.238-27.334-27.334-27.334
		c-3.38,0-6.119,2.74-6.119,6.12V575.751z M708.477,441.455l1.791,81.092l78.653,1.76l-0.883-35.468
		c-0.631-28.572-29.74-48.484-58.311-47.853L708.477,441.455z M407.242,509.786c2.59,9.99,9.138,14.521,19.286,14.521
		c0.007,0,256.669,0,256.669,0s0-82.094,0-83.363c0-2.772-88.548-1.614-95.62-1.436c-44.244,1.113-91.942,3.239-134.782,15.289
		C427.453,461.454,399.198,478.753,407.242,509.786z M580.849,548.807h-24.832c-3.14,0-5.685,2.545-5.685,5.685v0.165
		c0,3.14,2.545,5.685,5.685,5.685h24.832c3.14,0,5.685-2.545,5.685-5.685v-0.165C586.534,551.352,583.989,548.807,580.849,548.807z
		 M1054.545,599.564c6.248,0,11.313-5.164,11.313-11.535c0-6.371-5.065-11.535-11.313-11.535h-724.86L70.869,553.421l34.13,65.753
		l294.514-19.611H1054.545z M1142.15,667.507c0-20.224-9.912-20.224-14.145-20.224c-0.049,0-0.098-0.001-0.147-0.001l-55.579-1.041
		c-12.251,0.038-23.815,10.355-23.815,21.266c0,0.131-0.003,0.261-0.01,0.392c-0.31,6.195,2.696,10.724,5.272,13.432
		c4.443,4.67,11.01,7.459,17.565,7.459c0.263,0,0.527-0.004,0.791-0.013c0.088-0.003,0.176-0.005,0.264-0.005l48.536,0.001
		C1132.61,688.774,1142.15,679.234,1142.15,667.507z M966.699,658.553c-20.51,0-37.136,16.953-37.136,37.866
		s16.626,37.866,37.136,37.866c20.51,0,37.136-16.953,37.136-37.866S987.209,658.553,966.699,658.553z M1043.586,695.886
		c0,43.004-34.189,77.866-76.364,77.866c-42.175,0-76.364-34.862-76.364-77.866s34.189-77.865,76.364-77.865
		C1009.397,618.021,1043.586,652.882,1043.586,695.886z M1014.296,696.419c0-26.804-21.31-48.533-47.597-48.533
		c-26.287,0-47.597,21.729-47.597,48.533c0,26.804,21.31,48.533,47.597,48.533C992.986,744.952,1014.296,723.223,1014.296,696.419z"
		/>
</g>
</svg>
