<?xml version="1.0" encoding="utf-8"?>
<!-- Svg Vector Icons : http://www.onlinewebfonts.com/icon -->
<!DOCTYPE svg PUBLIC "-//W3C//DTD SVG 1.1//EN" "http://www.w3.org/Graphics/SVG/1.1/DTD/svg11.dtd">
<svg version="1.1" xmlns="http://www.w3.org/2000/svg" xmlns:xlink="http://www.w3.org/1999/xlink" x="0px" y="0px" viewBox="0 0 256 256" enable-background="new 0 0 256 256" xml:space="preserve">
<metadata> Svg Vector Icons : http://www.onlinewebfonts.com/icon </metadata>
<g><g><g><path fill="#000000" d="M26.7,40.3c-7.8,2.1-13.9,8.3-15.9,16.2c-1.1,4-1,109.6,0,113.7c1.1,4,3.2,7.7,6.2,10.5c4.8,4.6,9.7,6.3,17.6,6.3h5v5c0,8,1.8,12.8,6.3,17.6c1.3,1.4,3.7,3.3,5.2,4.1c5.7,3-0.4,2.8,91.7,2.8c73.6,0,84-0.1,86.4-0.7c7.9-2.1,14-8.2,16.1-16.2c1.1-4,1-109.6,0-113.7c-1.1-4-3.2-7.7-6.2-10.5c-4.8-4.6-9.7-6.3-17.6-6.3h-5v-5c0-3-0.3-6-0.7-7.7c-2.1-7.9-8.2-14-16.2-16.1C195.6,39.3,30.5,39.3,26.7,40.3z M198.3,55.5c2.8,2,3.2,3.1,3.3,8.5l0.2,5h-71.3c-77.8,0-73.6-0.1-79,2.6c-3.3,1.7-7.3,5.7-9.1,8.9c-2.9,5.5-2.8,3.9-2.8,49.9v41.9l-5-0.2c-5.4-0.1-6.5-0.6-8.5-3.3c-1-1.2-1-1.6-1.1-54.3c0-29.2,0-53.7,0.1-54.5c0.3-1.8,2.3-4.2,4.1-5c1.2-0.5,16.1-0.6,84.6-0.5l83.2,0.1L198.3,55.5z M227.8,85c0.7,0.5,1.7,1.5,2.2,2.2c1,1.2,1,1.4,1,55.6c0,54.1,0,54.3-1,55.5c-0.5,0.7-1.5,1.7-2.2,2.2l-1.2,1h-83.8H59l-1.2-1c-0.7-0.5-1.7-1.5-2.2-2.2c-1-1.2-1-1.6-1.1-54.3c0-29.2,0-53.7,0.1-54.5c0.3-1.8,2.3-4.2,4.1-5c1.2-0.5,16.1-0.6,84.6-0.5l83.2,0.1L227.8,85z"/><path fill="#000000" d="M114.1,102.8c-6.7,2.5-9.9,8.7-8.1,15.2c2.7,9.3,14.6,11.9,21,4.6c1.8-2.1,3.2-5.5,3.2-7.9c0-2.1-1.3-5.7-2.7-7.6C124.8,103.3,118.4,101.3,114.1,102.8z"/><path fill="#000000" d="M155,120.7c-0.6,0.6-6.8,10.8-13.6,22.7c-6.8,11.9-12.6,21.7-12.8,21.7c-0.2,0.1-2.7-4.1-5.6-9.2c-5.9-10.3-7.1-11.9-9.4-11.9c-2.9,0-2.7-0.2-15.9,22.8c-6,10.5-6.6,12.1-5.6,14.1c1.3,2.4-0.4,2.3,50.4,2.3c50.6,0,49.7,0,50.9-2.2c1.1-2.1,0.6-3.6-5.2-13.5c-19.3-33.7-26-45-27.2-46.3C159.4,119.4,156.8,119.1,155,120.7z"/></g></g></g>
</svg>