<?xml version="1.0" encoding="utf-8"?>
<!-- Svg Vector Icons : http://www.onlinewebfonts.com/icon -->
<!DOCTYPE svg PUBLIC "-//W3C//DTD SVG 1.1//EN" "http://www.w3.org/Graphics/SVG/1.1/DTD/svg11.dtd">
<svg version="1.1" xmlns="http://www.w3.org/2000/svg" xmlns:xlink="http://www.w3.org/1999/xlink" x="0px" y="0px" viewBox="0 0 256 256" enable-background="new 0 0 256 256" xml:space="preserve">
<metadata> Svg Vector Icons : http://www.onlinewebfonts.com/icon </metadata>
<g><g><g><path fill="#000000" d="M59.8,31.6c-7.9,2.2-13.9,8.4-15.9,16.5c-0.5,2.4-0.7,6.4-0.7,18.6v15.6h-4.9c-9,0-15.7,2.6-21.3,8.1c-3.5,3.5-5.8,7.7-6.7,12.1c-0.4,2-0.5,17-0.4,52.8l0.1,50l1.1,2.7c2.6,6.3,7,11.1,13.3,14.2c6.1,3,2.1,2.9,86.4,2.8l76.7-0.1l3.1-1.2c8.4-3.3,14-8.6,16.7-15.9c1-2.6,1-3.9,1.2-16.3c0.1-11.1,0-13.4-0.5-13.1c-0.3,0.2-3.1,2.4-6.2,4.9l-5.6,4.5v7.2c0,4.6-0.2,7.8-0.7,8.9c-1.1,3-3.4,5.5-6.9,7.1l-3.2,1.6l-66.2,0.1l-66.3,0.1l1-3l1-3l0.2-78.3c0.3-86.4,0-79.4,3.2-82.5c2.8-2.8-1-2.7,67.2-2.7c43.1,0,63.3,0.1,64.2,0.5c1.6,0.6,4.2,3,5.3,5c0.7,1.3,0.8,5.7,1,48l0.2,46.6l6.1-4.9l6-4.9V92.4c0-45.4,0-44.6-3-50.1c-2.7-5-8.6-9.5-14.2-10.8C188.3,30.6,62.7,30.8,59.8,31.6z M43.2,150.1L43,205.4l-1.4,2.9c-2,3.9-3.9,4.9-7.7,4.1c-5.2-1.1-8.6-3.5-10.5-7.5l-1.1-2.4V154c0-36.7,0.1-49,0.6-50.5c0.8-2.8,4.7-6.5,8-7.8c2-0.8,3.7-1,7.5-1l4.9,0L43.2,150.1z"/><path fill="#000000" d="M106.1,60c-5,1-9.2,4.5-10.7,8.9c-2.3,6.9,0.5,13.8,7,17.1c2,1.1,3,1.3,6.5,1.3c3.5,0,4.4-0.2,6.8-1.3c8.6-4.2,10.6-14.7,4.2-21.8c-1.7-2-4.8-3.6-8.1-4.2C109,59.4,109,59.4,106.1,60z M112.1,68.3c1.7,1.1,2.6,3.1,2.6,5.6c0,2.5-1.3,4.4-3.7,5.4c-5.8,2.4-10.3-6.3-5.3-10.5C107.4,67.3,110.2,67.1,112.1,68.3z"/><path fill="#000000" d="M162,60.8c-4.1,2-6.3,6.4-5,10.2c1,3,3.5,4.6,9.6,6c4.5,1,5.6,1.7,4.7,2.8c-0.9,1.1-5.8,0.5-8.9-1.1c-2.6-1.3-2.6-1.3-3.3-0.3c-0.4,0.5-1.5,1.8-2.3,2.9l-1.6,2l2.2,1.2c3.3,2,6.3,2.7,10.9,2.8c3.1,0,4.9-0.2,6.5-0.8c5.3-2,7.5-8.2,4.5-12.5c-1-1.4-4.4-2.9-8.3-3.8c-4.1-1-5.3-1.5-5.3-2.4c0-1.6,4.1-1.5,7.9,0.3c1.1,0.5,2.2,0.9,2.3,0.8c0.1-0.1,1.1-1.4,2.1-2.8c2.2-3,2.1-3.2-1.6-4.8C172.9,59.8,164.8,59.5,162,60.8z"/><path fill="#000000" d="M75.6,64.5v4H79h3.3v5c0,3.9-0.1,5.1-0.8,5.7c-1,1-2.7,1-4.2-0.2l-1.3-1l-2.6,2.2c-1.4,1.2-2.6,2.4-2.6,2.6c0,0.2,0.8,1.1,1.9,2c3.2,2.9,9,3.5,13.2,1.4c4.4-2.3,4.9-3.9,4.9-16v-9.8h-7.6h-7.6L75.6,64.5L75.6,64.5z"/><path fill="#000000" d="M127.5,73.8v13.4l9.4-0.2c9-0.1,9.5-0.2,11.5-1.3c3-1.7,4-3.3,4-6c0-2.8-1.1-4.6-3.5-5.7l-1.8-0.9l1.4-1c3.1-2.1,3.9-6.2,1.6-9c-1.8-2.3-3.3-2.6-13.5-2.6h-9.3V73.8z M142.6,68.5c0.2,1.7-1,2.4-4,2.4h-2.5V69v-2l3.2,0.1C142.3,67.3,142.5,67.4,142.6,68.5z M142.9,76.9c1.9,1.9,0,3.5-4.1,3.5h-2.8v-2.1v-2.1h3C141.3,76.1,142.4,76.4,142.9,76.9z"/><path fill="#000000" d="M66.4,107.4c-0.2,0.1-0.3,2.4-0.3,5v4.7l17-0.1l17-0.1v-4.8v-4.8l-16.7-0.1C74.2,107.1,66.6,107.2,66.4,107.4z"/><path fill="#000000" d="M108.8,107.4c-0.2,0.1-0.3,2.4-0.3,5v4.7l17-0.1l17-0.1v-4.8v-4.8l-16.7-0.1C116.6,107.1,109,107.2,108.8,107.4z"/><path fill="#000000" d="M151.1,107.6c-0.1,0.3-0.2,16.8-0.1,36.6l0.1,35.9l16.9-13.6l16.9-13.6v-22.8v-22.8l-16.8-0.1C154.9,107.1,151.2,107.2,151.1,107.6z"/><path fill="#000000" d="M229.8,124.8c-5.9,4.6-62,50-62.2,50.4c-0.1,0.2,2.9,4.1,6.6,8.7l6.8,8.3l12-9.6c6.6-5.3,20.8-16.8,31.5-25.5c10.8-8.7,20-16.3,20.6-17c1.1-1.4,1.3-3.5,0.4-5.1c-0.9-1.7-7.9-10.2-9-11C234.6,122.7,232.1,123.1,229.8,124.8z"/><path fill="#000000" d="M66.2,139.5l0.1,4.9h16.9h16.9l0.1-4.9l0.1-4.9H83.2H66.1L66.2,139.5z"/><path fill="#000000" d="M108.6,139.5l0.1,4.9h16.9h16.9l0.1-4.9l0.1-4.9h-17.2h-17.2L108.6,139.5z"/><path fill="#000000" d="M66.4,162.2c-0.2,0.1-0.3,2.4-0.3,5v4.7l17-0.1l17-0.1v-4.8v-4.8l-16.7-0.1C74.2,161.9,66.6,162,66.4,162.2z"/><path fill="#000000" d="M108.8,162.2c-0.2,0.1-0.3,2.4-0.3,5v4.7h17.1h17.2l-0.1-4.9l-0.1-4.9l-16.7-0.1C116.6,161.9,109,162,108.8,162.2z"/><path fill="#000000" d="M161.5,180.2c-1.9,2.6-5.5,9.8-6.6,13.1c-1.1,3.2-1,5.9,0.1,6.5c1.6,0.9,6.9,0.5,12-0.8c5.1-1.3,9.6-3,10.1-4c0.3-0.5-12.8-17.2-13.6-17.2C163.4,178,162.4,179,161.5,180.2z"/><path fill="#000000" d="M66.2,194.3l0.1,4.9h16.9h16.9l0.1-4.9l0.1-4.9H83.2H66.1L66.2,194.3z"/><path fill="#000000" d="M108.6,194.3l0.1,4.9h16.9h16.9l0.1-4.9l0.1-4.9h-17.2h-17.2L108.6,194.3z"/></g></g></g>
</svg>